<svg xmlns="http://www.w3.org/2000/svg" width="1536" height="864" viewBox="0 0 1536 864" role="img" aria-labelledby="title desc">
<title id="title">Authenticated Remote MCP architecture</title><desc id="desc">An authenticated Remote MCP setup with host, authorization server, remote MCP server, and backend API.</desc>
<defs><marker id="arrow" markerWidth="12" markerHeight="12" refX="10" refY="6" orient="auto"><path d="M2 2 L10 6 L2 10 Z" fill="#1b4565"/></marker><marker id="arrowAmber" markerWidth="12" markerHeight="12" refX="10" refY="6" orient="auto"><path d="M2 2 L10 6 L2 10 Z" fill="#c98220"/></marker><style>text{font-family:-apple-system,BlinkMacSystemFont,'Noto Sans JP','Hiragino Sans',sans-serif;fill:#172033}.title{font-size:40px;font-weight:800}.sub{font-size:26px;fill:#546277}.h{font-size:36px;font-weight:800}.p{font-size:27px;fill:#42526a}.small{font-size:22px;fill:#546277}.mono{font-family:'SFMono-Regular','Menlo',monospace;font-size:24px;fill:#172033}.card{fill:#fff;stroke:#d5dde8;stroke-width:2}.blue{fill:#eef4fb;stroke:#1b4565}.teal{fill:#eaf5f4;stroke:#2f9c95}.amber{fill:#fff4df;stroke:#c98220}.gray{fill:#f6f8fb;stroke:#cbd5e1}.num{font-size:22px;font-weight:800;fill:#fff}</style></defs><rect width="1536" height="864" fill="#f6f8fb"/>
<text class="title" x="110" y="92">и™Ни®ЉдїШгБНRemote MCPгБЃеЕ®дљУжІЛжИР</text><text class="sub" x="110" y="138">OAuth tokenгБІRemote MCP serverгБЄеЕ•гВКгАБbackend APIгБѓеИ•еҐГзХМгБ®гБЧгБ¶жЙ±гБЖ</text>
<rect class="card blue" x="104" y="300" width="310" height="190" rx="18"/><text class="h" x="142" y="358">Host</text><text class="p" x="142" y="406">Claude / Codex</text><text class="mono" x="142" y="454">tool_call</text>
<rect class="card amber" x="562" y="204" width="370" height="178" rx="18"/><text class="h" x="600" y="262">Authorization</text><text class="p" x="600" y="312">login / consent / PKCE</text><text class="mono" x="600" y="354">access token</text>
<rect class="card teal" x="562" y="500" width="370" height="208" rx="18"/><text class="h" x="600" y="558">Remote MCP</text><text class="p" x="600" y="608">/mcp over HTTPS</text><text class="p" x="600" y="646">audience / scopeж§Ьи®Љ</text><text class="mono" x="600" y="686">tools/call</text>
<rect class="card amber" x="1088" y="348" width="350" height="190" rx="18"/><text class="h" x="1126" y="406">Backend API</text><text class="p" x="1126" y="454">AWS / DB / SaaS</text><text class="mono" x="1126" y="502">downstream token</text>
<path d="M424 344 C498 238 512 260 546 292" stroke="#c98220" stroke-width="5" marker-end="url(#arrowAmber)" fill="none"/><text class="small" x="430" y="256">1. login</text>
<path d="M562 374 C500 430 476 444 430 420" stroke="#c98220" stroke-width="5" marker-end="url(#arrowAmber)" fill="none"/><text class="small" x="440" y="476">2. token</text>
<path d="M426 604 H546" stroke="#1b4565" stroke-width="5" marker-end="url(#arrow)"/><text class="small" x="438" y="586">3. JSON-RPC + token</text>
<path d="M944 604 C1015 604 1010 444 1072 444" stroke="#1b4565" stroke-width="5" marker-end="url(#arrow)" fill="none"/><text class="small" x="970" y="576">4. backend call</text>
<path d="M1080 506 C1010 560 1012 662 944 662" stroke="#1b4565" stroke-width="5" marker-end="url(#arrow)" fill="none"/><text class="small" x="980" y="690">5. result</text>
<path d="M546 662 H426" stroke="#1b4565" stroke-width="5" marker-end="url(#arrow)"/><text class="small" x="438" y="698">6. tool result</text>
</svg>
